<svg width="132" height="22" viewBox="0 0 132 22" fill="none" xmlns="http://www.w3.org/2000/svg">
<path d="M14.8484 4.25101H9.63483V22.0001H5.54806V4.25101H0.334534V0.498627H14.8484V4.25101Z" fill="#008ABA"/>
<path d="M28.814 3.97633H21.0486V6.53893H27.9979V10.0229H21.0486V12.616H28.814V16.0999H17.3699V0.504608H28.814V3.98853V3.97633ZM17.3699 22V18.4185H28.814V22H17.3699Z" fill="#008ABA"/>
<path d="M36.7866 18.2415H43.8029V21.9939H32.6998V0.492401H36.7866V18.2415Z" fill="#008ABA"/>
<path d="M58.3838 3.97633H50.6183V6.53893H57.5676V10.0229H50.6183V12.616H58.3838V16.0999H46.9396V0.504608H58.3838V3.98853V3.97633ZM46.9396 22V18.4185H58.3838V22H46.9396Z" fill="#008ABA"/>
<path d="M75.078 0.498505H80.121V22H76.3753V8.03989L72.8671 22H69.493L65.9848 7.80194L66.0213 22H62.2756V0.498505H67.2821L71.1983 16.1304L75.0841 0.498505H75.078Z" fill="#008ABA"/>
<path d="M94.4946 4.08005H91.09V12.5123H94.4946V16.0938H83.9336V12.5123H87.3382V4.08005H83.9336V0.498505H94.4946V4.08005ZM83.9336 22V18.4185H94.4946V22H83.9336Z" fill="#008ABA"/>
<path d="M109.179 0.498509H113.095V22H109.179L101.956 6.3681C102.047 7.2345 102.114 8.0338 102.163 8.77207C102.205 9.51035 102.23 10.1571 102.23 10.7001V21.9939H98.3135V0.492401H102.467L109.453 15.4776C109.362 14.6844 109.295 13.9095 109.246 13.159C109.197 12.4085 109.179 11.8167 109.179 11.3835V0.498509Z" fill="#008ABA"/>
<path d="M126.178 0.498505C127.883 0.498505 129.223 0.96222 130.198 1.89574C131.172 2.82926 131.665 4.09226 131.665 5.68474V16.8138C131.665 18.4062 131.178 19.6693 130.198 20.6028C129.223 21.5363 127.883 22 126.178 22H117.322V0.498505H126.178ZM127.579 6.22775C127.579 5.63591 127.42 5.16002 127.104 4.79393C126.787 4.42784 126.367 4.25089 125.843 4.25089H121.415V18.2415H125.843C126.367 18.2415 126.787 18.0585 127.104 17.6985C127.42 17.3324 127.579 16.8565 127.579 16.2646V6.23386V6.22775Z" fill="#008ABA"/>
</svg>
