<svg width="154" height="165" viewBox="0 0 154 165" fill="none" xmlns="http://www.w3.org/2000/svg">
<path d="M78.7327 149.034C78.0384 150.669 77.5938 151.639 77.2162 152.634C73.4522 162.567 64.4382 166.942 54.2365 163.604C52.391 163 50.9598 163.232 49.1082 163.702C46.2578 164.434 43.042 164.763 40.1794 164.227C21.725 160.761 6.07836 141.047 6.87622 122.358C7.00413 119.381 7.81417 116.318 8.92266 113.542C9.75706 111.443 9.57435 110.076 8.29533 108.337C3.21579 101.388 -0.0122078 93.7609 -2.66806e-05 84.9382C0.0121545 76.6158 2.62501 69.2392 7.37565 62.4727C8.39278 61.0266 9.14801 59.0376 9.1541 57.2986C9.19064 47.7255 12.4674 39.6777 19.4715 33.1064C20.3181 32.3132 21.0672 30.8672 21.0368 29.7445C20.6105 15.9491 35.7699 9.34737 45.3564 11.6354C46.136 11.8185 46.9339 11.9039 47.683 12.0259C56.3682 -2.86773 69.9319 -4.09412 80.6025 9.26195C82.3262 4.92992 85.3958 2.17206 89.781 1.0799C95.36 -0.311227 100.848 -0.0305604 106.14 2.3368C107.145 2.78831 108.388 3.25812 108.936 4.10622C110.94 7.19355 114.162 7.90132 117.28 9.0484C127.847 12.9411 134.084 20.6289 136.654 31.5261C136.965 32.8562 137.903 34.3328 138.999 35.1321C145.973 40.2024 148.476 46.9689 147.313 55.3828C147.166 56.4566 147.66 57.9576 148.397 58.763C154.664 65.5783 155.748 74.3461 151.265 82.4C150.76 83.3152 150.303 84.865 150.729 85.5911C154.786 92.6077 153.872 99.7037 151.077 106.714C150.139 109.063 150.151 111.095 150.626 113.438C152.837 124.268 145.936 137.142 135.85 141.535C134.62 142.072 133.603 143.39 132.805 144.568C130.49 148.003 128.681 151.828 126.075 155.001C114.57 169.016 88.5812 165.758 80.7853 151.841C80.3528 151.072 79.7438 150.407 78.7267 149.028L78.7327 149.034ZM135.345 134.476C136.203 134.152 136.514 134.098 136.751 133.939C146.844 127.166 147.166 113.688 137.269 106.043C128.748 99.4658 118.863 97.2387 108.315 98.0319C96.7365 98.9044 88.1548 104.713 83.2458 115.22C78.2029 126.007 78.4282 136.837 85.5115 146.734C94.1175 158.754 113.808 159.901 122.542 149.107C127.981 142.389 130.186 134.628 129.217 126.031C128.383 118.594 123.413 112.938 116.531 111.4C109.904 109.918 102.419 112.974 98.7585 118.649C94.5012 125.257 97.6805 134.128 104.916 135.806C108.004 136.52 110.775 134.879 111.409 131.858C111.719 130.376 111.78 129.094 109.533 128.948C108.315 128.869 107.151 127.88 105.958 127.301C106.049 126.794 106.134 126.288 106.226 125.781C109.874 125.403 113.516 124.964 117.17 124.75C117.481 124.732 118.218 126.257 118.163 127.02C118.066 128.32 117.219 129.583 117.176 130.87C116.951 138.094 110.781 143.091 103.698 141.669C93.5267 139.626 88.3132 128.692 92.7715 118.484C96.3345 110.32 103.339 107.471 111.604 106.788C124.223 105.75 135.393 116.062 135.338 128.679C135.332 130.479 135.338 132.279 135.338 134.464L135.345 134.476ZM20.2937 126.459C20.6348 126.312 20.9759 126.172 21.3109 126.025C22.194 127.081 23.0406 128.173 23.9603 129.192C27.6085 133.243 31.1471 137.405 35.0329 141.218C36.0074 142.17 38.1208 141.956 39.7105 142.28C39.9663 140.59 40.9042 138.643 40.3743 137.258C37.0733 128.594 31.4395 121.864 22.8822 117.91C20.0988 116.623 17.151 116.001 14.5625 118.185C12.0045 120.339 11.1944 123.487 12.1141 126.513C13.3992 130.742 14.9036 135.031 17.1206 138.82C22.0174 147.185 28.7779 153.695 38.3036 156.588C46.3736 159.034 53.5726 154.464 55.0709 146.209C56.8311 136.465 50.9537 124.891 41.7813 118.673C35.2644 114.256 29.0093 109.381 23.0101 104.274C14.5442 97.074 11.9801 83.4922 16.5115 76.0362C16.8343 75.5115 16.7917 74.401 16.4445 73.8885C14.9889 71.7408 13.3566 69.7212 11.566 67.3599C10.7681 68.2202 9.61698 68.9463 9.25154 69.9531C7.91162 73.62 6.07227 77.3297 5.80428 81.1248C5.19523 89.5936 9.00792 96.9764 14.3676 103.005C19.5081 108.789 25.9032 113.438 31.677 118.667C37.7554 124.164 42.4573 130.528 43.6084 138.936C44.0348 142.06 42.774 144.488 40.1185 146.172C37.597 147.765 35.0756 147.393 32.6332 146.026C31.6709 145.483 30.7573 144.8 29.9473 144.049C25.5377 139.949 22.6203 134.879 20.6348 129.253C20.3303 128.393 20.4034 127.404 20.2998 126.471L20.2937 126.459ZM64.7062 50.7945C63.5733 52.0514 61.9837 51.8806 60.6072 50.4345C59.2125 48.9763 58.0674 47.2862 56.8006 45.712C53.8893 42.0999 51.5018 37.8106 47.9388 35.0223C39.9054 28.7317 31.5248 31.4773 23.8141 36.0839C13.8743 42.0267 11.5721 58.22 19.0695 67.0061C21.6885 70.0812 23.6679 70.6486 27.3832 69.1538C32.3409 67.1586 37.4752 66.9877 42.6583 67.5735C46.8486 68.0494 47.6404 67.5125 47.7683 63.2842C47.7987 62.2713 47.8109 61.2341 47.6282 60.2456C46.605 54.6445 44.2967 49.7573 39.1989 46.7675C36.4764 45.169 33.3824 45.9927 31.5857 48.3905C29.4783 51.1972 29.9351 55.694 32.4688 58.5067C35.0451 61.3683 36.2023 57.8417 38.1696 57.3475C39.6374 59.605 38.5837 61.3988 36.9454 62.8876C34.7771 64.8522 32.3165 64.7058 29.8986 63.2964C25.9702 61.0083 23.2842 55.0106 24.0699 50.3796C24.9408 45.2483 28.9119 41.1603 34.0584 40.1109C39.4669 39.0065 44.2236 40.8735 46.9034 45.474C48.5844 48.36 49.8878 51.4596 51.3678 54.4615C55.2536 62.3568 63.1348 65.0597 71.0404 61.2158C78.8911 57.3963 80.566 51.2094 75.5778 43.6924C69.9501 46.4137 64.3651 46.1025 58.9871 42.5331C58.7496 42.8321 58.5181 43.1372 58.2806 43.4362C60.3514 45.8035 62.4222 48.177 64.7062 50.7945ZM24.0821 98.3858C24.0821 97.6231 24.1186 97.2265 24.0821 96.836C23.1502 88.1537 27.3649 82.6624 36.0379 81.2834C45.8437 79.7215 56.6483 87.3422 58.5425 97.1594C59.3526 101.357 58.1466 104.927 54.9734 106.788C50.5821 109.362 46.1299 108.777 41.9944 106.214C37.8285 103.633 35.0877 99.9295 34.972 94.8043C34.9537 94.0233 35.776 92.681 36.3972 92.565C37.3169 92.3881 38.6324 92.8091 39.3511 93.4558C39.9967 94.0355 39.9724 95.3168 40.4231 96.1954C41.696 98.6787 42.6522 101.485 44.4794 103.481C47.1531 106.409 51.179 106.586 53.5604 104.609C55.9906 102.59 56.3864 98.8556 54.2669 95.4144C51.1546 90.3624 46.7268 86.9761 40.9042 85.5789C33.5651 83.8094 27.1335 89.8804 28.6013 97.3425C30.1422 105.158 35.4775 110.094 42.0432 113.749C53.4203 120.089 65.6137 112.889 65.8999 99.8258C66.1862 86.6466 55.3937 74.7427 41.6107 72.9123C34.8928 72.0153 28.65 72.8878 23.2903 77.3663C16.6759 82.9003 16.9439 93.2301 24.0943 98.3919L24.0821 98.3858ZM104.027 26.9989C104.63 28.994 105.282 31.1417 105.927 33.2956C105.708 33.5091 105.489 33.7166 105.269 33.9301C104.076 32.9722 102.888 32.0142 101.621 30.9953C101.103 31.1722 100.47 31.2699 99.9766 31.5871C98.4966 32.5451 96.03 33.4481 97.1933 35.5043C97.8632 36.6941 100.47 37.5361 102.041 37.3286C105.653 36.8466 108.637 34.766 110.745 31.7031C113.218 28.1032 112.115 25.0159 107.974 23.6736C99.9401 21.0682 88.5751 24.4057 83.2885 30.9221C79.7255 35.309 80.4503 40.6783 85.1461 43.8327C86.4739 44.7236 87.9782 45.4801 89.507 45.9194C101.359 49.3424 117.591 41.3983 122.213 29.9886C124.278 24.8939 122.768 19.0426 118.522 15.6929C113.869 12.0198 108.54 11.9588 103.698 15.3878C103.168 15.76 102.212 15.522 101.451 15.5708C101.578 14.6373 101.505 13.6001 101.907 12.8008C102.151 12.3188 103.119 12.1906 103.771 11.9222C106.244 10.9093 106.597 9.57312 104.569 8.00505C101.049 5.2838 97.0471 4.47231 92.8081 5.99157C88.7517 7.44371 85.8465 10.1284 84.9634 14.5519C84.2021 18.3653 86.4556 21.2086 90.3718 21.2208C92.1807 21.2269 93.9896 20.7022 95.8046 20.6533C99.9157 20.5374 104.112 20.0249 108.114 20.6717C113.869 21.5991 115.8 26.1874 113.321 31.5078C110.666 37.2127 102.656 41.3068 96.4867 39.8241C95.2686 39.5312 93.8373 38.195 93.3745 37.0052C91.8518 33.0576 94.3368 29.6286 99.1544 28.451C100.732 28.0666 102.273 27.5114 104.015 26.9806L104.027 26.9989ZM116.397 44.1012C117.591 45.3764 118.401 46.4503 119.406 47.2862C126.647 53.3205 125.514 62.4361 119.862 67.9152C117.061 70.6303 113.522 72.5767 110.355 74.9257C107.273 77.2138 103.875 79.2395 101.317 82.0278C99.6417 83.8522 98.5819 86.7992 98.4662 89.3008C98.3931 90.8627 100.397 93.6755 101.804 93.9073C104.496 94.3466 107.419 93.3521 110.385 92.9311C107.413 87.33 108.004 83.8216 112.773 80.112C114.984 78.3975 117.578 77.1161 120.136 75.9447C123.541 74.3888 127.201 73.376 130.539 71.7042C140.241 66.8413 144.572 54.553 140.101 44.9432C139.267 43.1494 138.353 40.5685 135.911 41.4105C133.463 42.2464 130.399 42.9907 129.863 46.5174C129.772 47.097 128.663 47.518 128.03 48.0122C127.055 45.7608 124.199 44.4612 124.491 41.0566C127.378 42.3928 129.376 41.6484 130.764 39.1773C132.854 35.4555 131.489 29.1527 127.744 26.1386C126.69 33.8996 122.487 39.6167 116.391 44.1134L116.397 44.1012ZM100.525 75.725C99.1057 75.5481 98.3322 75.4566 97.5648 75.3528C90.9504 74.4498 88.0452 69.4222 90.5363 63.1804C92.9116 57.2193 101.079 53.1497 107.182 55.2974C108.905 55.9075 111.135 57.8783 111.281 59.4036C111.427 60.9717 109.46 62.8876 108.114 64.3763C107.608 64.9377 106.262 64.7363 105.3 64.8827C105.184 63.9553 104.837 62.9913 105.001 62.1127C105.525 59.245 104.368 58.0674 101.591 58.8423C98.8925 59.5989 96.9192 62.0761 96.9984 64.596C97.0897 67.3294 99.7452 69.9286 103.125 70.4229C107.157 71.0086 110.733 69.8188 113.948 67.4026C120.715 62.3079 120.009 53.8147 112.334 50.3003C104.38 46.6638 96.8644 48.3539 89.9759 53.2107C85.8465 56.1211 82.9901 60.0199 83.0022 65.3831C83.0205 70.6791 84.4457 75.3284 89.4826 78.1412C82.1313 83.3946 80.6147 98.8312 83.3068 103.828C87.4179 101.022 91.5534 98.1967 95.8472 95.2619C92.7045 88.0805 95.2199 81.8631 100.519 75.725H100.525ZM64.5844 26.4863C66.0278 25.4552 66.9597 25.0525 67.4956 24.3508C68.6528 22.8194 69.5969 21.1293 70.6445 19.5124C74.2927 13.8563 72.2097 8.6396 65.6197 7.13864C62.4466 6.41867 59.3586 6.74815 56.6179 8.72502C53.2681 11.1351 50.7466 13.9662 51.1242 18.5422C51.179 19.2378 50.3324 20.2446 49.6381 20.69C48.9803 21.111 47.9693 20.9828 47.1105 21.0927C47.1958 20.2995 47.5917 19.3598 47.3054 18.7375C46.7451 17.5294 46.0386 15.9857 44.9727 15.4732C37.597 11.9588 27.5172 18.89 27.5781 27.3161C27.5781 27.4504 27.8461 27.5785 28.1932 27.8958C37.0184 23.8261 45.8498 21.7943 53.6579 30.7146C54.3887 28.1398 54.8577 25.7603 55.7348 23.5515C56.6179 21.3306 57.8421 19.189 61.2833 19.4392C60.9483 20.6411 60.5159 21.5564 60.4549 22.5021C60.2113 26.0836 59.2551 29.8787 60.0834 33.2162C61.9471 40.7515 69.2132 42.2037 74.4815 36.5049C76.8386 33.9545 78.215 30.9892 78.1115 27.426C78.0506 25.2966 77.7887 23.277 75.3647 22.5509C72.9771 21.837 71.217 22.9536 69.8466 24.7779C68.6163 26.4192 68.1047 28.1093 69.4081 30.1045C69.7492 30.6292 69.1462 31.7824 68.9756 32.6427C68.1534 32.2766 66.9231 32.1302 66.5882 31.5017C65.6624 29.7689 65.1142 27.8348 64.5965 26.4741L64.5844 26.4863ZM145.345 104.487C146.155 101.479 147.197 99.0387 147.416 96.531C147.885 91.1373 145.443 88.1354 140.101 87.7083C135.564 87.3422 130.691 86.4392 127.238 90.8749C127.116 91.0275 126.69 90.942 126.081 90.997C125.959 88.416 125.837 85.9328 125.715 83.4495C128.584 86.5429 131.654 85.1945 134.614 84.627C135.905 84.3769 137.227 84.1938 138.469 83.7789C144.261 81.8448 148.336 78.2083 149.456 71.9543C150.139 68.1531 148.482 65.0231 145.132 63.7113C140.357 72.6011 131.775 76.1277 122.78 79.0747C121.147 79.6056 119.546 80.2767 118.005 81.0394C113.4 83.3152 112.602 88.1415 116.616 91.3447C118.742 93.0409 121.543 93.9928 124.156 94.9568C128.962 96.7323 133.932 98.0868 138.688 99.9783C140.783 100.814 142.531 102.535 145.345 104.487ZM52.5677 121.522C58.1162 132.896 63.2383 144.751 56.9772 158.076C57.2757 158.333 57.4706 158.589 57.7325 158.711C61.0275 160.193 64.4504 159.339 67.6357 156.258C70.8394 153.165 71.9357 149.327 69.9258 145.483C68.5067 142.768 66.3202 140.406 64.2372 138.106C60.4123 133.884 59.2551 128.179 61.868 123.841C62.477 122.828 63.9997 121.828 65.1142 121.815C66.1192 121.803 67.1363 123.152 68.6224 124.25C64.359 125.092 62.8729 127.118 64.0849 130.217C64.8584 132.194 66.2166 134.183 67.8428 135.525C70.4191 137.655 73.3487 136.654 73.708 133.359C74.1526 129.308 74.2562 125.025 73.3974 121.089C72.8005 118.35 70.4617 115.915 68.6041 113.585C68.123 112.98 66.241 112.755 65.5101 113.2C61.1371 115.83 56.9102 118.704 52.5616 121.541L52.5677 121.522ZM73.7324 109.246C76.1442 102.443 77.1553 95.7988 75.322 88.8126C73.4279 81.6129 67.3616 78.0253 62.3552 73.2783C64.7062 73.5651 66.6917 74.3217 68.5919 75.2491C71.7773 76.7989 74.378 76.0484 76.3331 72.8756C78.6475 69.1172 78.4099 65.1756 75.7423 63.1743C71.083 68.4277 63.9388 69.831 57.6411 66.7376C53.5239 64.7119 52.4519 65.2 50.7953 70.1117C67.1972 77.7263 72.3437 90.8932 68.665 108.203C70.3948 108.557 71.9478 108.874 73.7324 109.24V109.246Z" fill="url(#paint0_linear_1_446)"/>
<defs>
<linearGradient id="paint0_linear_1_446" x1="14.6478" y1="147.765" x2="137.525" y2="25.1071" gradientUnits="userSpaceOnUse">
<stop stop-color="#7F26F1"/>
<stop offset="0.51" stop-color="#2BDEFD"/>
<stop offset="1" stop-color="#144480"/>
</linearGradient>
</defs>
</svg>
